<?xml version="1.0" encoding="UTF-8" standalone="no"?>
<svg
   xmlns:dc="http://purl.org/dc/elements/1.1/"
   xmlns:cc="http://creativecommons.org/ns#"
   xmlns:rdf="http://www.w3.org/1999/02/22-rdf-syntax-ns#"
   xmlns:svg="http://www.w3.org/2000/svg"
   xmlns="http://www.w3.org/2000/svg"
   xmlns:sodipodi="http://sodipodi.sourceforge.net/DTD/sodipodi-0.dtd"
   xmlns:inkscape="http://www.inkscape.org/namespaces/inkscape"
   sodipodi:docname="hpffrec_icon.svg"
   inkscape:version="1.0 (5b275a35d9, 2020-05-03)"
   id="svg8"
   version="1.1"
   viewBox="0 0 100 100"
   height="100mm"
   width="100mm">
  <defs
     id="defs2" />
  <sodipodi:namedview
     inkscape:window-maximized="1"
     inkscape:window-y="0"
     inkscape:window-x="0"
     inkscape:window-height="1080"
     inkscape:window-width="1920"
     showgrid="false"
     inkscape:document-rotation="0"
     inkscape:current-layer="layer1"
     inkscape:document-units="mm"
     inkscape:cy="48.132937"
     inkscape:cx="751.05403"
     inkscape:zoom="0.35"
     inkscape:pageshadow="2"
     inkscape:pageopacity="0.0"
     borderopacity="1.0"
     bordercolor="#666666"
     pagecolor="#ffffff"
     id="base" />
  <metadata
     id="metadata5">
    <rdf:RDF>
      <cc:Work
         rdf:about="">
        <dc:format>image/svg+xml</dc:format>
        <dc:type
           rdf:resource="http://purl.org/dc/dcmitype/StillImage" />
        <dc:title></dc:title>
      </cc:Work>
    </rdf:RDF>
  </metadata>
  <g
     transform="translate(29.153698,-36.599145)"
     id="layer1"
     inkscape:groupmode="layer"
     inkscape:label="Layer 1">
    <g
       transform="translate(-41.153698,22.599145)"
       id="g967">
      <circle
         style="fill:#250930;fill-opacity:1;stroke-width:0.257544"
         id="path110"
         cx="-64"
         cy="62"
         transform="rotate(-90)"
         r="50" />
      <g
         id="g108"
         transform="matrix(1.2153266,0,0,1.2153266,25.540193,27.537881)">
        <g
           id="colour">
          <path
             id="path12"
             fill="#aaaaaa"
             d="m 46.0384,25 a 10.66483,10.66483 0 0 1 -14.08662,1.49034 l -1.48006,3.7156 a 0.49882,0.49882 0 0 1 -0.46964,0.31643 0.5127,0.5127 0 0 1 -0.47973,-0.31643 l -1.48006,-3.7156 A 10.66485,10.66485 0 0 1 13.95566,25 C 12.28171,33.29883 14.01697,41.44459 18.8043,47.48751 22.03,51.56035 26.21507,54 30.00207,54 c 3.77691,0 7.962,-2.43965 11.19777,-6.51249 C 45.98731,41.44459 47.72268,33.29883 46.0384,25 Z" />
          <path
             id="path14"
             fill="#ff9f00"
             d="m 31.541,24.715 -1.47409,3.70009 -1.484,-3.70009 a 1.48158,1.48158 0 0 1 2.95809,0 z" />
          <path
             id="path16"
             fill="#999999"
             d="m 13.95569,27.127 a 10.39238,10.39238 0 0 0 7.88025,3.70186 10.20043,10.20043 0 0 0 6.2063,-2.11694 l 1.4801,3.95158 A 0.513,0.513 0 0 0 30.00208,33 a 0.49976,0.49976 0 0 0 0.4696,-0.3365 l 1.4801,-3.95158 A 10.23016,10.23016 0 0 0 38.16821,30.82886 10.38743,10.38743 0 0 0 46.03833,27.127 35.13171,35.13171 0 0 1 46.6405,32.60385 34.65551,34.65551 0 0 0 46.03833,25 10.38743,10.38743 0 0 1 38.16821,28.70186 10.23016,10.23016 0 0 1 31.95178,26.58492 l -1.4801,3.95158 a 0.49976,0.49976 0 0 1 -0.4696,0.3365 0.513,0.513 0 0 1 -0.47974,-0.3365 l -1.4801,-3.95158 A 10.20043,10.20043 0 0 1 21.83594,28.70186 10.39238,10.39238 0 0 1 13.95569,25 34.74746,34.74746 0 0 0 13.35938,32.5738 35.25208,35.25208 0 0 1 13.95569,27.127 Z" />
          <path
             id="path18"
             fill="#aaaaaa"
             d="m 22.15222,10.41425 a 9.02971,9.02971 0 0 1 7.519,4.22116 0.27642,0.27642 0 0 0 0.11853,0.1 v 0.011 a 0.48571,0.48571 0 0 0 0.54419,0 l 0.01,-0.011 a 0.47759,0.47759 0 0 0 0.11877,-0.1 9.00332,9.00332 0 0 1 7.5188,-4.22116 c 4.88391,0 8.91736,4.21759 9.35486,9.58575 0.02612,-0.31894 0.0437,-0.64056 0.0437,-0.967 0,-5.82074 -4.22437,-10.55286 -9.39856,-10.55286 a 9.00332,9.00332 0 0 0 -7.5188,4.22116 0.47759,0.47759 0 0 1 -0.11877,0.1 l -0.01,0.011 a 0.48571,0.48571 0 0 1 -0.54419,0 v -0.011 a 0.27642,0.27642 0 0 1 -0.11853,-0.1 9.02971,9.02971 0 0 0 -7.519,-4.22116 c -5.18408,0 -9.39856,4.73212 -9.39856,10.55286 0,0.32648 0.01758,0.6481 0.04346,0.967 0.43677,-5.36816 4.46179,-9.58575 9.3551,-9.58575 z" />
          <path
             id="path20"
             fill="#b7b7b7"
             d="M 49.626,3.7226 A 13.8341,13.8341 0 0 1 50.11428,6.42695 12.33384,12.33384 0 0 0 49.626,2 C 47.8749,3.54333 45.22353,4.04785 42.43362,4.58215 38.63455,5.31421 34.72683,6.0661 32.15457,9.29132 A 10.26383,10.26383 0 0 1 37.4241,7.51184 37.29219,37.29219 0 0 1 42.43362,6.30475 C 45.22351,5.77045 47.87488,5.26593 49.626,3.7226 Z" />
          <path
             id="path22"
             fill="#aaaaaa"
             d="M 34.8479,5.82184 A 15.07273,15.07273 0 0 1 36.86377,4.9383 13.46619,13.46619 0 0 0 30.0669,3.53345 13.49859,13.49859 0 0 0 23.2605,4.9383 a 15.16,15.16 0 0 1 2.01733,0.88354 15.907,15.907 0 0 1 4.78906,-0.5658 15.84866,15.84866 0 0 1 4.78101,0.5658 z" />
          <path
             id="path24"
             fill="#b7b7b7"
             d="m 17.4,6.30475 a 37.27662,37.27662 0 0 1 5.01758,1.207 10.29908,10.29908 0 0 1 5.27161,1.77954 C 25.11682,6.0661 21.209,5.31421 17.4,4.58215 14.61011,4.04785 11.95874,3.54333 10.21753,2 A 12.30918,12.30918 0 0 0 9.72437,6.43909 13.81465,13.81465 0 0 1 10.21753,3.7226 C 11.95874,5.26593 14.61011,5.77045 17.4,6.30475 Z" />
          <path
             id="path26"
             fill="#aaaaaa"
             d="M 13.12476,26.889 C 13.21582,26.2604 13.32007,25.63082 13.45069,25 9.86914,26.3158 7.752,28.45282 7.16821,31.37128 a 9.81489,9.81489 0 0 0 -0.12012,2.74725 8.8515,8.8515 0 0 1 0.12012,-0.9942 C 7.7334,30.29913 9.74854,28.21356 13.12476,26.889 Z" />
          <path
             id="path28"
             fill="#aaaaaa"
             d="M 53.05,33.12433 A 8.83333,8.83333 0 0 1 53.17061,34.12415 9.80292,9.80292 0 0 0 53.05,31.37128 C 52.4762,28.45282 50.34912,26.3158 46.77759,25 c 0.12976,0.63068 0.23328,1.26007 0.32373,1.88843 3.36868,1.32457 5.39306,3.41028 5.94868,6.2359 z" />
          <path
             id="path30"
             fill="#999999"
             d="m 18.6842,48.18008 -1.73133,2.99764 C 12.75811,47.43808 5.8328,38.11854 7.16825,31.37129 7.752,28.45282 9.86922,26.31583 13.4506,25 c -1.73133,8.36976 0.0099,16.61091 4.85753,22.725 0.12873,0.15823 0.24733,0.29675 0.37607,0.45508 z" />
          <path
             id="path32"
             fill="#999999"
             d="M 43.18638,51.247 41,48.8033 c 0.30675,-0.34624 0.61338,-0.70239 0.91011,-1.07834 4.84787,-6.11406 6.589,-14.3552 4.86755,-22.725 3.57147,1.31583 5.69856,3.45282 6.27232,6.37129 1.3456,6.7869 -5.67875,16.19539 -9.8636,19.87575 z" />
          <path
             id="path34"
             fill="#aaaaaa"
             d="m 46.78673,12.39782 a 10.39168,10.39168 0 0 0 -8.80519,-4.907 10.27463,10.27463 0 0 0 -5.82705,1.80059 c 2.57224,-3.22523 6.48,-3.97713 10.279,-4.70923 C 45.22351,4.04786 47.87485,3.54335 49.626,2 c 1.75112,6.213 -1.23668,9.26012 -2.83927,10.39782 z" />
          <path
             id="path36"
             fill="#999999"
             d="m 36.86371,4.93828 a 11.38643,11.38643 0 0 0 -6.79682,5.79747 11.4021,11.4021 0 0 0 -6.80648,-5.79747 13.49932,13.49932 0 0 1 6.80648,-1.40483 13.46621,13.46621 0 0 1 6.79682,1.40483 z" />
          <path
             id="path38"
             fill="#aaaaaa"
             d="M 27.68919,9.29136 A 10.35622,10.35622 0 0 0 13.047,12.39782 C 11.44421,11.26012 8.45653,8.213 10.21745,2 11.95868,3.54335 14.61014,4.04786 17.4,4.58214 c 3.809,0.73209 7.71683,1.484 10.28919,4.70922 z" />
          <path
             id="path40"
             fill="#999999"
             d="m 40,34 a 0.99974,0.99974 0 0 0 -1,1 1,1 0 0 1 -2,0 1,1 0 0 0 -2,0 1,1 0 0 1 -2,0 1,1 0 0 0 -2,0 1,1 0 0 1 -2,0 1,1 0 0 0 -2,0 1,1 0 0 1 -2,0 1,1 0 0 0 -2,0 1,1 0 0 1 -2,0 1,1 0 0 0 -2,0 2.99863,2.99863 0 0 0 5,2.23438 2.99506,2.99506 0 0 0 4,0 2.99506,2.99506 0 0 0 4,0 2.99506,2.99506 0 0 0 4,0 A 2.99863,2.99863 0 0 0 41,35 0.99974,0.99974 0 0 0 40,34 Z" />
          <path
             id="path42"
             fill="#999999"
             d="m 38,40 a 0.99974,0.99974 0 0 0 -1,1 1,1 0 0 1 -2,0 1,1 0 0 0 -2,0 1,1 0 0 1 -2,0 1,1 0 0 0 -2,0 1,1 0 0 1 -2,0 1,1 0 0 0 -2,0 1,1 0 0 1 -2,0 1,1 0 0 0 -2,0 2.99863,2.99863 0 0 0 5,2.23438 2.99506,2.99506 0 0 0 4,0 2.99506,2.99506 0 0 0 4,0 A 2.99863,2.99863 0 0 0 39,41 0.99974,0.99974 0 0 0 38,40 Z" />
          <path
             id="path44"
             fill="#999999"
             d="m 36,46 a 0.99974,0.99974 0 0 0 -1,1 1,1 0 0 1 -2,0 1,1 0 0 0 -2,0 1,1 0 0 1 -2,0 1,1 0 0 0 -2,0 1,1 0 0 1 -2,0 1,1 0 0 0 -2,0 2.99863,2.99863 0 0 0 5,2.23438 2.99506,2.99506 0 0 0 4,0 A 2.99863,2.99863 0 0 0 37,47 0.99974,0.99974 0 0 0 36,46 Z" />
          <path
             id="path46"
             fill="#999999"
             d="m 37.98154,8.48011 a 9.30164,9.30164 0 0 0 -7.51877,3.75945 0.4666,0.4666 0 0 1 -0.11884,0.08907 l -0.0099,0.0098 a 0.53581,0.53581 0 0 1 -0.54418,0 v -0.0098 A 0.27065,0.27065 0 0 1 29.67126,12.23956 9.39868,9.39868 0 1 0 27.7915,25.39764 l -0.16823,-0.4056 a 0.62068,0.62068 0 0 1 -0.02971,-0.188 2.47333,2.47333 0 0 1 4.94665,0 0.64183,0.64183 0 0 1 -0.03949,0.188 l -0.15833,0.4056 a 9.315,9.315 0 0 0 5.63914,1.87975 9.398645,9.398645 0 1 0 0,-18.79729 z m -15.8293,13.85063 a 4.452,4.452 0 1 1 4.452,-4.452 4.45872,4.45872 0 0 1 -4.452,4.452 z m 15.8293,0 a 4.452,4.452 0 1 1 4.452,-4.452 4.45872,4.45872 0 0 1 -4.452,4.452 z" />
          <circle
             id="circle48"
             r="4"
             fill="#fbc12e"
             cy="18"
             cx="22" />
          <circle
             id="circle50"
             r="4"
             fill="#fbc12e"
             cy="18"
             cx="38" />
        </g>
        <g
           id="Layer_1"
           data-name="Layer 1">
          <path
             id="path53"
             d="m 22,13.00036 a 5,5 0 1 0 5,5 5.00589,5.00589 0 0 0 -5,-5 z m 0,8 a 3,3 0 1 1 3,-3 3.00328,3.00328 0 0 1 -3,3 z" />
          <circle
             id="circle55"
             r="1"
             cy="18.00036"
             cx="22" />
          <path
             id="path57"
             d="m 38,23.00036 a 5,5 0 1 0 -5,-5 5.00589,5.00589 0 0 0 5,5 z m 0,-8 a 3,3 0 1 1 -3,3 3.00328,3.00328 0 0 1 3,-3 z" />
          <circle
             id="circle59"
             r="1"
             cy="18.00036"
             cx="38" />
          <path
             id="path61"
             d="M 40.44141,49.96526 42.168,52.555 a 0.999,0.999 0 0 0 0.68848,0.43506 1.01385,1.01385 0 0 0 0.14352,0.0103 1.002,1.002 0 0 0 0.64063,-0.23193 c 4.542,-3.78564 12.3877,-14.08008 10.84668,-21.8457 C 53.8086,27.50537 51.45508,25.01599 47.5188,23.48865 A 10.8999,10.8999 0 0 0 48.022,13.49 c 3.60815,-2.72211 4.70972,-7.4566 2.92627,-12.806 a 1.00007,1.00007 0 0 0 -1.7168,-0.32373 c -1.37207,1.64648 -3.9834,2.147 -7.00781,2.72607 -1.2771,0.24457 -2.63892,0.50714 -3.99756,0.88837 A 14.555,14.555 0 0 0 30,2.00036 14.555,14.555 0 0 0 21.77393,3.97466 C 20.41529,3.59343 19.05347,3.33086 17.77637,3.08629 14.752,2.50719 12.14063,2.0067 10.76856,0.36022 A 1.00007,1.00007 0 0 0 9.05176,0.68395 C 7.26831,6.03338 8.36987,10.76787 11.978,13.49 a 10.8999,10.8999 0 0 0 0.50317,9.99866 c -3.93625,1.52734 -6.28976,4.0167 -6.96847,7.43406 -1.541,7.76563 6.30469,18.06006 10.84668,21.8457 A 1.002,1.002 0 0 0 17,53.00036 1.01385,1.01385 0 0 0 17.14355,52.99011 0.999,0.999 0 0 0 17.832,52.555 l 1.72656,-2.58978 A 19.32385,19.32385 0 0 0 23.8457,53.257 c -0.32153,0.6355 -0.90112,0.76184 -2.13574,0.93475 -1.8418,0.25732 -4.36426,0.60986 -5.6582,4.49219 a 0.99964,0.99964 0 1 0 1.89648,0.63281 c 0.76538,-2.29529 1.92773,-2.78882 3.29028,-3.02972 l -1.13306,2.26605 a 1.00012,1.00012 0 0 0 1.78906,0.89453 l 1.8186,-3.63715 A 3.20914,3.20914 0 0 0 25.65489,54.11435 11.86007,11.86007 0 0 0 30,55.00036 a 11.86007,11.86007 0 0 0 4.34509,-0.886 3.20914,3.20914 0 0 0 1.94177,1.69611 l 1.8186,3.63715 a 1.00012,1.00012 0 1 0 1.78906,-0.89453 L 38.76148,56.287 c 1.36255,0.24091 2.5249,0.73444 3.29028,3.02972 a 0.99964,0.99964 0 1 0 1.89648,-0.63281 c -1.29395,-3.88232 -3.81641,-4.23486 -5.6582,-4.49219 -1.23462,-0.17291 -1.81421,-0.29926 -2.13574,-0.93475 a 19.32385,19.32385 0 0 0 4.28711,-3.29171 z m 12.084,-18.65289 c 1.27246,6.41211 -5.14453,15.26758 -9.3291,19.1792 l -1.36431,-2.0459 -0.02954,0.01965 c 0.11475,-0.13824 0.23145,-0.27313 0.344,-0.41516 4.8157,-6.08016 6.66677,-14.18658 5.19554,-22.47754 2.93,1.27588 4.67912,3.19702 5.18339,5.73975 z M 30,22.00036 a 3.00328,3.00328 0 0 0 -3,3 1.0076,1.0076 0 0 0 0.07129,0.37158 l 0.01758,0.04407 A 8.91244,8.91244 0 0 1 22,27.00036 9,9 0 1 1 29.2002,12.60046 l 0.01074,0.0085 a 0.99189,0.99189 0 0 0 1.57813,0 l 0.01074,-0.0085 A 9.00657,9.00657 0 1 1 32.91113,25.416 l 0.01758,-0.04407 A 1.0076,1.0076 0 0 0 33,25.00036 a 3.00328,3.00328 0 0 0 -3,-3 z M 30.9873,24.83972 30,27.308 29.0127,24.83974 a 1.00034,1.00034 0 0 1 1.97461,0 z M 42.59961,5.05065 c 2.582,-0.49463 5.0498,-0.96729 6.874,-2.2334 0.86035,3.77722 -0.019,6.92572 -2.4574,8.90009 A 10.94441,10.94441 0 0 0 35.07446,7.40313 22.82591,22.82591 0 0 1 42.59961,5.05065 Z M 30,4.00036 a 14.12069,14.12069 0 0 1 5.64331,0.881 A 11.85425,11.85425 0 0 0 30,9.73864 11.85425,11.85425 0 0 0 24.35669,4.88134 14.12069,14.12069 0 0 1 30,4.00036 Z M 10.52637,2.81725 c 1.82422,1.26611 4.292,1.73877 6.874,2.2334 a 22.82591,22.82591 0 0 1 7.52515,2.35248 10.94441,10.94441 0 0 0 -11.94177,4.31421 C 10.54541,9.743 9.666,6.59447 10.52637,2.81725 Z m 7.64163,45.62842 -1.36426,2.0459 C 12.61917,46.57995 6.20218,37.72448 7.47464,31.31237 7.97888,28.7697 9.728,26.8485 12.658,25.57262 c -1.47119,8.291 0.37988,16.39734 5.19556,22.47754 0.11255,0.142 0.22925,0.27692 0.344,0.41516 z M 30,53.00036 c -3.55273,0 -7.50781,-2.31494 -10.57812,-6.19189 a 25.98718,25.98718 0 0 1 -4.82422,-20.69519 10.964,10.964 0 0 0 13.25171,1.204 l 1.22192,3.05469 a 1.00046,1.00046 0 0 0 1.85742,0 l 1.22192,-3.05469 a 10.964,10.964 0 0 0 13.25171,-1.204 25.98718,25.98718 0 0 1 -4.82422,20.69519 C 37.50781,50.68541 33.55274,53.00036 30,53.00036 Z" />
          <path
             id="path63"
             d="m 40,33.00036 a 0.99974,0.99974 0 0 0 -1,1 1,1 0 1 1 -2,0 1,1 0 0 0 -2,0 1,1 0 1 1 -2,0 1,1 0 0 0 -2,0 1,1 0 0 1 -2,0 1,1 0 0 0 -2,0 1,1 0 0 1 -2,0 1,1 0 0 0 -2,0 1,1 0 0 1 -2,0 1,1 0 0 0 -2,0 2.99863,2.99863 0 0 0 5,2.23438 2.99506,2.99506 0 0 0 4,0 2.99506,2.99506 0 0 0 4,0 2.99506,2.99506 0 0 0 4,0 2.99863,2.99863 0 0 0 5,-2.23437 0.99974,0.99974 0 0 0 -1,-1.00001 z" />
          <path
             id="path65"
             d="m 38,39.00036 a 0.99974,0.99974 0 0 0 -1,1 1,1 0 1 1 -2,0 1,1 0 0 0 -2,0 1,1 0 0 1 -2,0 1,1 0 0 0 -2,0 1,1 0 0 1 -2,0 1,1 0 0 0 -2,0 1,1 0 0 1 -2,0 1,1 0 0 0 -2,0 2.99863,2.99863 0 0 0 5,2.23438 2.99506,2.99506 0 0 0 4,0 2.99506,2.99506 0 0 0 4,0 2.99863,2.99863 0 0 0 5,-2.23437 0.99974,0.99974 0 0 0 -1,-1.00001 z" />
          <path
             id="path67"
             d="m 36,45.00036 a 0.99974,0.99974 0 0 0 -1,1 1,1 0 1 1 -2,0 1,1 0 0 0 -2,0 1,1 0 0 1 -2,0 1,1 0 0 0 -2,0 1,1 0 0 1 -2,0 1,1 0 0 0 -2,0 2.99863,2.99863 0 0 0 5,2.23438 2.99506,2.99506 0 0 0 4,0 2.99863,2.99863 0 0 0 5,-2.23437 0.99974,0.99974 0 0 0 -1,-1.00001 z" />
        </g>
      </g>
    </g>
    <g
       transform="translate(0,4.1175171)"
       id="g1023">
      <text
         xml:space="preserve"
         style="font-size:39.8639px;line-height:0;font-family:'Open Sans';-inkscape-font-specification:'Open Sans';letter-spacing:0px;word-spacing:0px;stroke-width:1.00055"
         x="76.02581"
         y="81.823807"
         id="text1007"><tspan
           sodipodi:role="line"
           x="76.02581"
           y="81.823807"
           style="font-size:39.8639px;fill:#ffffff;stroke-width:1.00055"
           id="tspan1009">HPFanfiction</tspan></text>
      <text
         xml:space="preserve"
         style="font-size:35.2778px;line-height:0;font-family:'Open Sans';-inkscape-font-specification:'Open Sans';letter-spacing:0px;word-spacing:0px;stroke-width:0.264582"
         x="71.593689"
         y="113.29627"
         id="text1017"><tspan
           sodipodi:role="line"
           id="tspan1015"
           x="71.593689"
           y="113.29627"
           style="font-size:35.2778px;fill:#ffffff;stroke-width:0.264582">Recommender</tspan></text>
    </g>
  </g>
</svg>
